<?xml version="1.0" encoding="UTF-8" standalone="no"?>
<!-- Created with Inkscape (http://www.inkscape.org/) -->

<svg
   width="135.13013mm"
   height="170.60495mm"
   viewBox="0 0 135.13013 170.60495"
   version="1.1"
   id="svg5"
   inkscape:version="1.1.1 (3bf5ae0d25, 2021-09-20)"
   sodipodi:docname="wisebot.svg"
   xmlns:inkscape="http://www.inkscape.org/namespaces/inkscape"
   xmlns:sodipodi="http://sodipodi.sourceforge.net/DTD/sodipodi-0.dtd"
   xmlns="http://www.w3.org/2000/svg"
   xmlns:svg="http://www.w3.org/2000/svg">
  <defs
     id="defs2" />
  <g
     id="layer1"
     transform="translate(-35.104193,-59.091471)">
    <g
       id="g1211"
       transform="translate(-1.7843919,-4.1222826)"
       >
      <path
         style="color:#000000;fill:#a4dfea;stroke-width:0.192424;-inkscape-stroke:none"
         d="m 73.971446,112.19897 c -0.911522,-0.87825 1.59374,-4.34757 4.520447,-5.97631 5.046595,-3.45932 12.9459,-2.53031 17.61105,2.22152 0.347283,0.35374 0.775618,0.69998 0.792834,1.14971 0.09992,0.88219 -0.419748,1.29477 -1.976317,0.37329 -4.089327,-1.9436 -7.923572,-2.65005 -11.485151,-1.79085 -2.657352,0.64107 -7.867747,3.64672 -7.867747,3.64672 0,0 -1.182515,0.98696 -1.595116,0.37592 z m 58.808404,-2.32072 c -1.04647,-0.7179 -3.68004,-1.84237 -5.85347,-2.49132 -1.5764,-0.47068 -2.07509,-0.43067 -4.35712,-0.43153 -1.89439,-7.7e-4 -2.90662,0.026 -3.95905,0.28792 -1.37891,0.34308 -4.04757,1.42634 -5.58983,2.35791 -0.65311,0.3945 -0.90993,0.37505 -1.17853,0.10644 -0.51469,-0.51469 -0.15937,-1.3469 1.37927,-2.76466 2.52654,-2.32806 5.82713,-3.7246 9.53186,-3.89387 1.87783,-0.0858 2.55759,0.0567 3.9363,0.41401 3.09314,0.77209 5.10418,2.15622 7.17143,4.4673 0.56553,0.63224 0.90185,0.96723 0.8193,1.55071 0.0192,0.63251 -0.0864,0.91488 -0.50884,0.96219 -0.28116,0.0315 -0.94146,-0.25649 -1.39132,-0.5651 z"
         id="path1225" />
      <path
         style="color:#000000;fill:#803300;stroke-width:0.192424;-inkscape-stroke:none"
         d="m 123.88036,227.07949 c -0.27351,0.20785 0.0171,-0.29527 -2.00878,-0.40609 -5.92001,-0.32386 -12.7222,-2.03983 -17.88095,-4.63165 -4.342121,-2.18154 -11.647212,-7.56422 -17.191467,-12.60323 -2.407389,-2.188 -7.169068,-7.38602 -9.897268,-10.74121 -3.743306,-4.60359 -10.983161,-17.46875 -13.469367,-23.9314 -0.508932,-1.32291 -1.389141,-3.61757 -1.962338,-5.09924 -0.573195,-1.48167 -2.115618,-5.55144 -3.427605,-9.04394 -1.311985,-3.4925 -2.58927,-6.5222 -2.69126,-6.68769 -0.40683,-0.6601 -0.698238,-0.61452 -1.427781,0.17185 -0.379178,0.40871 -0.674621,0.77409 -0.730639,0.84592 -1.549934,1.62135 -2.827024,3.51183 -3.685999,5.23038 -1.771302,3.61413 -2.875546,8.02788 -3.296427,12.95949 -0.325721,3.81659 -0.04386,8.72769 0.878009,14.48215 0.547927,3.42025 -0.132753,5.50446 -2.193278,6.71571 -0.762875,0.44844 -1.123008,0.53276 -2.254847,0.52796 -1.599263,-0.007 -2.625141,-0.46255 -3.547846,-1.5762 -1.120326,-1.35216 -1.213968,-2.09214 -0.985735,-7.78947 0.362206,-9.04167 1.348288,-19.82276 2.159623,-23.6117 0.931898,-4.35198 2.859191,-8.6981 5.298349,-11.94798 1.162486,-1.54887 4.162134,-4.41941 5.587897,-5.34739 0.765925,-0.49852 1.393709,-1.01749 1.395076,-1.15328 0.0014,-0.13579 -0.308857,-2.08409 -0.689386,-4.32955 l -0.691872,-4.08266 -0.968326,-1.50933 c -6.553196,-10.21443 -6.910506,-16.44826 -5.595748,-25.27945 2.143973,-14.400989 14.01473,-27.594338 30.976665,-34.566673 18.332359,-7.535659 40.10236,-7.337728 57.97363,0.569753 11.26473,4.984293 20.22168,13.140116 25.0178,22.575622 1.46243,2.877074 2.92807,6.982908 3.55037,10.668568 0.43981,2.60485 0.46059,8.23407 0.0289,10.73746 -0.43276,2.50974 -1.21709,5.2425 -1.95482,7.11278 -0.33307,0.84439 -0.41072,1.23061 -0.64367,1.75992 -0.11281,0.29136 -0.58828,1.10029 -1.14676,2.15863 l -1.0154,1.92424 -0.36284,3.55985 c -0.19956,1.95791 -0.41496,3.87614 -0.47866,4.26273 -0.11047,0.67037 -0.0729,0.73207 0.81194,1.33394 1.16578,0.79293 4.18172,3.86902 5.54246,5.653 1.22576,1.607 2.32056,3.59659 3.28635,5.9723 1.14303,2.81171 1.41815,3.68367 2.21603,7.02348 1.54056,6.44861 2.74885,15.60977 3.2785,24.85733 0.27409,4.78541 0.17904,5.33407 -1.16402,6.71891 -0.64889,0.66907 -1.1517,0.98621 -1.92367,1.21329 -1.29314,0.38039 -1.42716,0.38039 -2.7203,0 -1.997,-0.58744 -3.45481,-2.67992 -3.07027,-4.40695 0.0943,-0.42333 0.31599,-2.19061 0.49272,-3.92729 0.42581,-4.18401 0.2958,-9.57351 -0.28233,-12.70572 -0.79352,-4.29911 -2.44709,-10.27937 -3.56613,-12.81114 -0.63631,-1.43962 -2.1923,-3.87815 -2.36809,-3.99132 -0.4107,-0.50226 -0.7798,-1.13928 -1.0785,-1.63385 -0.39896,-0.66146 -0.78405,-1.20259 -0.85576,-1.20251 -0.0717,8e-5 -0.42204,1.79684 -0.77851,3.99281 -5.11317,31.49894 -15.24952,56.986 -27.56143,69.30107 -1.41758,1.41795 -2.25396,2.17687 -2.58619,2.42935 z m -13.80893,-92.24302 c 16.87997,-1.71711 30.74013,-9.39856 34.3707,-19.04859 1.68466,-4.47784 1.32639,-9.18815 -1.06741,-14.0338 -1.54489,-3.127231 -3.39642,-5.318231 -6.77494,-8.01712 -6.33009,-5.056707 -12.35383,-7.888946 -20.35714,-9.571503 -6.39526,-1.344495 -10.70145,-1.540205 -15.55329,-1.196331 -7.56695,0.536309 -13.328114,1.324741 -17.543677,2.88971 -0.793751,0.294669 -1.783144,0.644402 -2.198652,0.777183 -0.415507,0.132782 -1.800962,0.803188 -3.078788,1.489791 -7.351911,3.950339 -13.708804,9.667962 -16.094163,14.47568 -2.4834,5.00532 -2.454727,8.72811 0.110635,14.36439 1.792513,3.93828 5.564067,7.72707 10.791833,10.84117 6.29916,3.75231 15.400526,6.43208 24.419893,7.19008 2.311862,0.1943 10.479869,0.0932 12.974999,-0.16066 z"
         id="path1223"
      />
      <path
         style="color:#000000;fill:#552200;stroke-width:0.192424;-inkscape-stroke:none"
         d="m 103.90103,233.63389 c -11.916341,-1.75028 -23.486577,-12.99754 -33.043395,-32.12101 -4.910829,-9.8267 -8.842913,-20.33059 -12.45914,-33.28246 -1.816372,-6.50551 -3.818753,-14.82668 -3.566399,-14.82065 0.434331,0.0104 0.868234,0.97194 3.00207,6.65289 1.308274,3.48304 2.89581,7.67496 3.527857,9.31537 0.632048,1.64042 1.565839,4.06497 2.07509,5.38788 2.489979,6.46838 9.727536,19.32478 13.46995,23.92727 2.7282,3.35519 7.509516,8.516 9.916905,10.704 5.541118,5.03616 12.863285,10.38449 17.189432,12.55568 5.1944,2.60695 11.82907,4.3495 18.00197,4.72809 l 2.21288,0.13572 -1.66844,1.25135 c -5.28966,3.9673 -10.38627,5.82071 -15.80798,5.74867 -0.9713,-0.0129 -2.25416,-0.0952 -2.8508,-0.1828 z M 46.973634,187.18555 c -1.504649,-9.76864 -1.250821,-16.5928 0.934788,-23.19862 1.220072,-3.68757 3.33095,-7.3592 5.028257,-8.9445 0.521904,-0.48747 0.45041,-0.31869 -0.459544,1.08487 -2.148897,3.31457 -3.157301,6.44035 -3.778186,11.71134 -0.510596,4.3347 -1.15684,12.79374 -1.315702,17.22197 l -0.172503,3.66433 z m 115.662056,0.18415 c -0.21814,-6.11556 -1.21444,-15.74838 -2.23591,-21.61789 -0.77894,-4.47593 -1.57767,-7.39189 -2.94666,-10.75749 -0.226,-0.55562 -0.37504,-1.01023 -0.33118,-1.01023 0.16433,0 1.83747,2.83399 2.32697,3.94146 1.11961,2.53307 2.79153,8.50532 3.58318,12.79945 0.57968,3.14435 0.69108,8.45101 0.26595,12.66907 -0.17772,1.76326 -0.39482,3.509 -0.48244,3.87942 -0.1591,0.67258 -0.15934,0.67271 -0.17991,0.0962 z M 60.537602,113.53524 c -1.682885,-5.19264 0.05873,-11.01018 4.940953,-16.171902 2.255968,-2.385122 5.022637,-4.801964 7.561837,-6.489669 2.610247,-1.734928 6.689474,-3.855567 7.889089,-4.266883 0.625983,-0.214632 1.45752,-0.476667 2.251271,-0.771336 4.215563,-1.564969 9.776283,-2.528452 17.475528,-3.064761 3.61939,-0.252118 6.2426,-0.164554 10.10227,0.396156 5.97111,0.867445 10.88433,2.158207 14.84791,3.858927 6.11484,2.526925 13.21096,7.666901 16.293,11.914464 2.28763,2.860024 3.58833,7.557014 3.61123,11.042884 0.007,1.04072 -0.1079,2.11729 -0.12319,2.20321 -0.27217,1.52917 -0.0901,-0.81539 -0.0917,-1.70615 -0.0166,-9.44813 -9.91554,-18.157542 -25.12967,-22.10988 -4.96057,-1.288661 -9.56604,-1.910553 -15.27658,-2.062846 -13.857058,-0.369552 -26.964627,3.166799 -35.524106,9.584212 -2.320489,1.739771 -5.315928,4.908574 -6.490784,6.866454 -2.105312,3.50846 -2.864707,7.59559 -2.022339,10.88441 0.286555,1.11879 1.017701,3.75674 -0.314779,-0.10729 z"
         id="path1221" />
      <path
         style="color:#000000;fill:#007aa3;stroke-width:0.192424;-inkscape-stroke:none"
         d="m 43.633967,106.81852 c -0.98659,-0.41165 -1.569639,-1.78474 -1.390596,-2.83633 0.701181,-4.118299 4.949673,-12.70511 8.790472,-17.766799 3.69223,-4.865895 9.608357,-9.813549 15.659556,-13.096076 6.923773,-3.755863 10.847186,-5.286204 19.557572,-7.628501 5.441373,-1.46323 8.306466,-1.853568 15.848489,-2.159182 9.39199,-0.380578 13.74273,0.0839 23.66819,2.526758 5.30406,1.30544 9.36771,2.819834 14.89145,5.549568 8.87727,4.386994 15.39532,10.38918 20.55481,18.928021 2.14144,3.544039 3.16402,5.619094 4.04473,8.207728 l 0.71552,2.103073 -0.35484,0.93604 c -0.3068,0.80932 -0.57228,1.02265 -1.56034,1.55506 -0.73694,0.39711 -1.43046,0.61461 -1.92404,0.61807 l -0.83819,0.13797 -0.73274,-2.32664 c -1.50907,-4.791679 -4.72879,-10.009077 -8.08886,-13.692779 -1.34397,-1.473418 -4.07327,-4.18013 -4.95351,-4.883674 -0.46344,-0.370416 -1.02482,-0.90422 -1.34754,-1.171938 -3.22774,-2.677648 -8.31342,-5.709466 -12.99812,-7.748806 -6.33133,-2.756148 -12.86531,-4.50172 -20.39697,-5.44911 -3.94826,-0.496642 -13.547204,-0.502715 -17.510609,-0.01108 -11.08641,1.375203 -20.881348,4.717068 -29.266306,9.985162 -4.490027,2.820991 -8.727061,6.410891 -11.875395,10.061634 -0.455851,0.528593 -0.981081,1.134262 -1.167178,1.345928 -0.769026,0.874688 -3.103172,4.350786 -4.005506,5.965152 -1.704387,3.049318 -3.05218,6.476571 -3.839939,9.764431 -0.196374,0.81961 -0.27827,1.51993 -0.384103,1.51586 -0.105833,-0.004 -0.689987,-0.21574 -1.096007,-0.42995 z"
         id="path1217" />
      <path
         style="color:#000000;fill:#204887;stroke-width:0.192424;-inkscape-stroke:none"
         d="m 43.694865,131.4671 c -3.217147,-0.30216 -5.443088,-2.30074 -6.120615,-5.49545 -0.385703,-1.81868 -0.658781,-6.12276 -0.682748,-10.76104 -0.02781,-5.38206 0.120784,-6.17609 1.435237,-7.66939 0.894469,-1.01617 1.058847,-1.1207 2.782483,-1.76948 l 1.235667,-0.4651 0.300383,0.58088 c 0.187211,0.36202 0.641615,0.74009 1.206073,1.00344 0.498128,0.23242 0.920188,0.42437 0.93791,0.42657 0.01772,0.002 -0.04884,0.43687 -0.147917,0.96596 -1.206974,6.44541 -0.04358,14.25397 3.107109,20.8545 0.524306,1.0984 0.953283,2.02302 0.953283,2.05471 0,0.0528 -1.200069,0.19824 -2.886363,0.34978 -0.370417,0.0333 -1.324643,-5.8e-4 -2.120502,-0.0754 z m 118.729605,-3.7594 c -0.15875,-0.0341 -0.76564,-0.11429 -1.34863,-0.17814 -1.62092,-0.17754 -1.62257,-0.18111 -0.93887,-2.0356 1.90847,-5.17657 2.53288,-10.24143 2.14549,-15.04649 -0.17536,-2.17515 -0.61555,-5.54427 -0.93785,-6.38416 -0.0937,-0.24432 0.036,-0.30195 0.67991,-0.30195 1.09061,0 2.9899,-0.97257 3.38272,-1.73219 0.33944,-0.65641 0.4358,-0.67401 1.65821,-0.303 1.44105,0.43738 2.39183,1.0066 3.13863,1.87907 1.27594,1.49065 1.5919,3.40656 1.77107,10.73946 0.141,5.77101 -0.0422,7.91531 -0.81608,9.55114 -0.61156,1.29271 -2.26748,2.82365 -3.48882,3.22548 -1.52273,0.50099 -4.23347,0.804 -5.24578,0.58638 z"
         id="path1215" />
      <path
         style="color:#000000;fill:#323232;stroke-width:0.192424;-inkscape-stroke:none"
         d="m 97.428661,135.0381 c -12.20223,-1.00388 -22.802139,-4.79701 -29.780151,-10.72052 -5.520634,-5.12029 -6.690882,-7.80814 -7.231234,-12.59649 -0.288925,-2.56032 0.670147,-6.07215 2.428211,-8.97466 1.182943,-1.953 4.146692,-5.152378 6.470408,-6.887837 11.381918,-8.500545 29.313401,-11.706764 46.616965,-8.477102 17.35713,3.23966 29.36258,12.673969 29.38054,23.086149 0.21997,3.18063 -0.71541,5.78477 -2.25413,8.20699 -5.47657,8.62103 -16.89607,14.29957 -31.94759,16.11698 -2.93745,0.35468 -10.7989,0.48377 -13.683019,0.24649 z M 75.566562,111.82305 c 1.018036,-0.81303 4.014232,-2.29517 6.232141,-3.08289 1.794723,-0.63742 2.049582,-0.76617 5.026416,-0.95274 3.690191,0.19936 4.60289,0.50056 7.448687,1.84863 0.998701,0.47309 1.931066,0.86016 2.071922,0.86016 0.414692,0 0.678469,-0.68157 0.472964,-1.2221 -0.20301,-0.53395 -2.079945,-2.16541 -3.331037,-2.89538 -2.405136,-1.40332 -6.43901,-2.3705 -8.889834,-2.13147 -3.816991,0.37227 -7.609936,2.4113 -9.814287,5.27602 -0.955462,1.2417 -1.258543,2.14546 -0.874622,2.60806 0.363507,0.438 0.832358,0.3508 1.65765,-0.30829 z m 59.110188,-2.20852 c 0.0548,-0.7475 -0.0149,-0.86005 -1.44318,-2.32839 -0.84915,-0.873 -2.03975,-1.85507 -2.7421,-2.26184 -3.01575,-1.74657 -6.72892,-2.41358 -9.74322,-1.75021 -3.34311,0.73574 -6.35195,2.31807 -8.23418,4.33033 -0.75885,0.81127 -0.90319,1.08145 -0.85336,1.59737 0.0844,0.87349 0.62401,0.88776 2.00615,0.053 2.98866,-1.80494 5.77661,-2.50321 9.47773,-2.37377 2.04403,0.0715 2.74144,0.18253 4.38473,0.69816 2.22007,0.69661 4.46322,1.68977 5.45424,2.41488 0.37765,0.27632 0.88479,0.47369 1.15454,0.44933 0.41658,-0.0376 0.48878,-0.14873 0.53865,-0.82891 z"
         id="path1213" />
    </g>
    <path
       d="m 136.73934,104.7577 c -0.35759,-3.57599 -2.01554,-6.989446 -4.69753,-9.492634 -2.77952,-2.58446 -6.38801,-4.014849 -10.19156,-4.014849 -6.7456,0 -12.56471,4.45372 -14.3852,10.890513 -1.13781,-1.13782 -3.00707,-1.90178 -4.76256,-1.90178 -1.75549,0 -3.624753,0.76396 -4.762566,1.90178 -1.820502,-6.436793 -7.639606,-10.890513 -14.385212,-10.890513 -3.78729,0 -7.412037,1.414132 -10.191548,3.998592 -2.681991,2.519445 -4.339947,5.932901 -4.697543,9.508891 h -2.373155 v 2.9258 h 2.373155 c 0.357596,3.57598 2.015552,6.98942 4.697543,9.49261 2.779511,2.58446 6.388001,4.01485 10.191548,4.01485 8.257277,0 14.970374,-6.69684 14.970374,-14.9541 0,-0.0163 0,-0.0163 0,-0.0163 v 0 c 0,-1.60919 1.869264,-3.51096 4.177404,-3.51096 2.30813,0 4.17739,1.90177 4.17739,3.51096 v 0 c 0,0 0,0 0,0.0163 0,8.25726 6.7131,14.9541 14.97037,14.9541 3.78729,0 7.41204,-1.41413 10.19156,-4.01485 2.68199,-2.50319 4.33994,-5.93289 4.69753,-9.50886 h 2.37316 v -2.92581 h -2.37316 z m -14.88909,13.97884 c -6.90816,0 -12.51594,-5.62405 -12.51594,-12.51594 0,-6.908166 5.62404,-12.515964 12.51594,-12.515964 6.90815,0 12.51595,5.624054 12.51595,12.515964 0,6.90815 -5.6078,12.51594 -12.51595,12.51594 z m -38.295538,0 c -6.90815,0 -12.515936,-5.62405 -12.515936,-12.51594 0,-6.908166 5.624042,-12.515964 12.515936,-12.515964 6.908149,0 12.515941,5.624054 12.515941,12.515964 0,6.90815 -5.607792,12.51594 -12.515941,12.51594 z"
       id="path22"
       style="stroke-width:0.162545"
        />
    <path
       d="m 126.56517,130.09222 c 0.99244,-0.35359 2.0839,-2.74223 2.0839,-2.74223 -3.47293,0.1771 -5.45707,-2.38869 -5.45707,-2.38869 -3.07554,-1.9462 -6.05221,-2.47698 -8.53262,-2.38868 -1.68659,-0.79603 -4.56431,-1.76913 -7.73888,-0.97314 -4.3657,1.15022 -5.05987,4.15781 -5.15945,4.86568 -0.0989,-0.70779 -0.69484,-3.71549 -5.15943,-4.86568 -3.17527,-0.79602 -6.0522,0.17711 -7.738876,0.97314 -2.579451,-0.0883 -5.457083,0.44244 -8.532616,2.38868 0,0 -2.083899,2.56514 -5.457083,2.38869 0,0 0.992448,2.38869 2.083898,2.74223 0,0 -5.754553,1.50379 -6.052204,8.49284 -0.297596,6.98833 2.778063,15.3041 8.234969,16.71968 0,0 -0.694852,9.90779 11.509283,16.71967 l 0.198628,-1.3267 c 0,0 -0.09897,3.00762 5.555941,6.10417 3.47293,1.9462 4.66318,4.1578 5.15944,5.66169 l 0.19862,0.97313 v 0.53069 -0.61955 0.70779 c 0,-0.70779 0.39657,-4.33489 5.45709,-7.16541 5.65569,-3.09655 5.55595,-6.10417 5.55595,-6.10417 l 0.19862,1.32671 c 12.20345,-6.81189 11.5093,-16.71968 11.5093,-16.71968 5.45706,-1.50381 8.5326,-9.73134 8.23496,-16.71968 -0.39795,-7.07728 -6.15267,-8.581 -6.15267,-8.581 z m -24.90332,4.95381 c -5.15944,0 -8.92914,-1.15022 -8.92914,-1.15022 2.18277,-0.0883 4.46457,-1.23846 4.46457,-1.23846 l -0.2976,0.53068 c 2.97667,0.35359 4.76221,-1.59203 4.76221,-1.59203 0,0 1.6866,1.94621 4.76223,1.59203 l -0.2976,-0.53068 c 0,0 2.28179,1.15022 4.46456,1.23846 0,0 -3.77041,1.15022 -8.92913,1.15022 z"
       id="path194"
       style="fill:#808080;stroke-width:0.167297"
        />
  </g>
</svg>
